<svg width="13" height="15" viewBox="0 0 13 15" fill="none" xmlns="http://www.w3.org/2000/svg">
<path d="M1 1C0.447715 1 0 1.44772 0 2V3C0 3.55228 0.447715 4 1 4H1.5V13C1.5 14.1046 2.39543 15 3.5 15H9.5C10.6046 15 11.5 14.1046 11.5 13V4H12C12.5523 4 13 3.55228 13 3V2C13 1.44772 12.5523 1 12 1H8.5C8.5 0.447715 8.05229 0 7.5 0H5.5C4.94772 0 4.5 0.447715 4.5 1H1ZM4 5C4.27614 5 4.5 5.22386 4.5 5.5V12.5C4.5 12.7761 4.27614 13 4 13C3.72386 13 3.5 12.7761 3.5 12.5L3.5 5.5C3.5 5.22386 3.72386 5 4 5ZM6.5 5C6.77614 5 7 5.22386 7 5.5V12.5C7 12.7761 6.77614 13 6.5 13C6.22386 13 6 12.7761 6 12.5V5.5C6 5.22386 6.22386 5 6.5 5ZM9.5 5.5V12.5C9.5 12.7761 9.27614 13 9 13C8.72386 13 8.5 12.7761 8.5 12.5V5.5C8.5 5.22386 8.72386 5 9 5C9.27614 5 9.5 5.22386 9.5 5.5Z" fill="#08988F"/>
</svg>
